<svg xmlns="http://www.w3.org/2000/svg" viewBox="0 0 512 512">
  <defs>
    <radialGradient id="bg" cx="50%" cy="38%" r="62%">
      <stop offset="0%" stop-color="#171717"/>
      <stop offset="72%" stop-color="#0a0a0a"/>
      <stop offset="100%" stop-color="#000000"/>
    </radialGradient>
    <linearGradient id="metal" x1="20%" x2="82%" y1="8%" y2="94%">
      <stop offset="0%" stop-color="#f5f5f5"/>
      <stop offset="18%" stop-color="#737373"/>
      <stop offset="42%" stop-color="#f5f5f5"/>
      <stop offset="62%" stop-color="#262626"/>
      <stop offset="100%" stop-color="#737373"/>
    </linearGradient>
    <linearGradient id="edge" x1="0%" x2="100%" y1="0%" y2="100%">
      <stop offset="0%" stop-color="#737373"/>
      <stop offset="45%" stop-color="#262626"/>
      <stop offset="100%" stop-color="#f5f5f5"/>
    </linearGradient>
    <filter id="shadow" x="-20%" y="-20%" width="140%" height="140%">
      <feDropShadow dx="0" dy="12" stdDeviation="10" flood-color="#000000" flood-opacity="0.8"/>
    </filter>
  </defs>
  <rect width="512" height="512" fill="#000000"/>
  <circle cx="256" cy="256" r="236" fill="url(#bg)" stroke="url(#edge)" stroke-width="12"/>
  <circle cx="256" cy="256" r="218" fill="none" stroke="#262626" stroke-width="4"/>
  <path d="M130 108h252v78h-42l-14-30h-45v214l34 50H197l34-50V156h-45l-14 30h-42V108Z" fill="#0a0a0a" opacity="0.95" transform="translate(10 12)"/>
  <path d="M130 108h252v78h-42l-14-30h-45v214l34 50H197l34-50V156h-45l-14 30h-42V108Z" fill="url(#metal)" stroke="#f5f5f5" stroke-width="5" stroke-linejoin="miter" filter="url(#shadow)"/>
  <path d="M142 119h228v24H142Z" fill="#f5f5f5" opacity="0.45"/>
  <path d="M236 156h22v211h-22Z" fill="#f5f5f5" opacity="0.22"/>
  <path d="M280 156h12v211h-12Z" fill="#000000" opacity="0.3"/>
  <path d="M116 398c48 34 232 37 280 0" fill="none" stroke="#262626" stroke-width="10" opacity="0.55"/>
  <path d="M92 108c56-52 274-52 328 0" fill="none" stroke="#737373" stroke-width="5" opacity="0.28"/>
</svg>
